<svg width="114" height="32" viewBox="0 0 114 32" fill="none" xmlns="http://www.w3.org/2000/svg">
<path d="M113.8 0V32H55.1562V0H113.8ZM60.7402 4.87598V26.9912H65.3086V16.9463H72.5225V12.416H65.3086V9.43262H77.0645V4.87598H60.7402ZM79.4688 4.87598V26.9912H84.0371V4.87598H79.4688ZM86.2285 4.87598V26.9912H90.7969V11.8301L103.781 26.9912H108.323V4.87598H103.781V20.0098L90.7969 4.87598H86.2285Z" fill="#417BFF"/>
<path d="M24.5385 11.9634C23.1225 11.99 21.947 12.363 21.0386 13.0824C20.1303 13.8018 19.6494 14.7077 19.5959 15.7735V24.1665H15.0273V7.80682H19.5959V9.05911C20.0234 8.47293 20.6379 8.07327 21.4127 7.78018C22.1875 7.51373 23.2294 7.35387 24.5385 7.35387V11.9634Z" fill="#417BFF"/>
<path d="M12.3024 12.4163V7.80682H8.40178C3.88663 7.80682 0.199707 11.4571 0.199707 15.9867C0.199707 20.5162 3.85991 24.1932 8.40178 24.1932H12.2757V19.5837H8.42849C6.45145 19.5837 4.84844 17.985 4.84844 16.0133C4.84844 14.0416 6.45145 12.443 8.42849 12.443H12.3024V12.4163Z" fill="#417BFF"/>
<path d="M25.8477 15.2406V24.1932H30.4162V15.2406C30.4162 13.642 31.6986 12.363 33.3017 12.363C34.9047 12.363 36.1871 13.642 36.1871 15.2406V24.1932H40.7557V15.2406C40.7557 11.1374 37.416 7.80682 33.3017 7.80682C29.1873 7.80682 25.8477 11.1374 25.8477 15.2406Z" fill="#417BFF"/>
<path d="M36.1875 15.2406V24.1932H40.7561V15.2406C40.7561 13.642 42.0385 12.363 43.6415 12.363C45.2445 12.363 46.5269 13.642 46.5269 15.2406V24.1932H51.0955V15.2406C51.0955 11.1374 47.7559 7.80682 43.6415 7.80682C39.5271 7.80682 36.1875 11.1374 36.1875 15.2406Z" fill="#417BFF"/>
</svg>
