<svg width="20" height="20" viewBox="0 0 20 20" fill="none" xmlns="http://www.w3.org/2000/svg">
<g clip-path="url(#clip0_9309_1928)">
<path d="M10 20V17.5C10 17.2239 10.2239 17 10.5 17C10.7761 17 11 17.2239 11 17.5V20C11 20.2761 10.7761 20.5 10.5 20.5C10.2239 20.5 10 20.2761 10 20ZM10 12.5V7.5C10 7.22386 10.2239 7 10.5 7C10.7761 7 11 7.22386 11 7.5V9.5H12.875C13.1511 9.5 13.375 9.72386 13.375 10C13.375 10.2761 13.1511 10.5 12.875 10.5H11V12.5C11 12.7761 10.7761 13 10.5 13C10.2239 13 10 12.7761 10 12.5ZM20 9.5C20.2761 9.5 20.5 9.72386 20.5 10C20.5 10.2761 20.2761 10.5 20 10.5H17.625C17.3489 10.5 17.125 10.2761 17.125 10C17.125 9.72386 17.3489 9.5 17.625 9.5H20ZM10 2.5V0C10 -0.276142 10.2239 -0.5 10.5 -0.5C10.7761 -0.5 11 -0.276142 11 0V2.5C11 2.77614 10.7761 3 10.5 3C10.2239 3 10 2.77614 10 2.5Z" fill="#BCC5DE"/>
</g>
<defs>
<clipPath id="clip0_9309_1928">
<rect width="20" height="20" fill="white"/>
</clipPath>
</defs>
</svg>
