<svg width="18" height="16" viewBox="0 0 18 16" fill="none" xmlns="http://www.w3.org/2000/svg">
<path d="M9.75 2.75C9.75 3.57843 7.90317 4.25 5.625 4.25C3.34683 4.25 1.5 3.57843 1.5 2.75M9.75 2.75C9.75 1.92157 7.90317 1.25 5.625 1.25C3.34683 1.25 1.5 1.92157 1.5 2.75M9.75 2.75V3.875M1.5 2.75V11.75C1.5 12.5784 3.34683 13.25 5.625 13.25M5.625 7.25C5.49859 7.25 5.37351 7.24793 5.25 7.24388C3.14756 7.17499 1.5 6.53246 1.5 5.75M5.625 10.25C3.34683 10.25 1.5 9.57843 1.5 8.75M16.5 7.625C16.5 8.45343 14.6532 9.125 12.375 9.125C10.0968 9.125 8.25 8.45343 8.25 7.625M16.5 7.625C16.5 6.79657 14.6532 6.125 12.375 6.125C10.0968 6.125 8.25 6.79657 8.25 7.625M16.5 7.625V13.25C16.5 14.0784 14.6532 14.75 12.375 14.75C10.0968 14.75 8.25 14.0784 8.25 13.25V7.625M16.5 10.4375C16.5 11.2659 14.6532 11.9375 12.375 11.9375C10.0968 11.9375 8.25 11.2659 8.25 10.4375" stroke="#407BFF" stroke-width="2" stroke-linecap="round" stroke-linejoin="round"/>
</svg>
