<svg width="8" height="10" viewBox="0 0 8 10" fill="none" xmlns="http://www.w3.org/2000/svg">
<path d="M3.87301 0.125C4.28712 0.125 4.62285 0.460922 4.62301 0.875V7.06836L6.34469 5.34766C6.63761 5.05494 7.11243 5.05487 7.40523 5.34766C7.69781 5.64059 7.69797 6.11544 7.40523 6.4082L4.40523 9.40625L4.34762 9.45801C4.33736 9.46636 4.325 9.47177 4.31441 9.47949C4.29806 9.49146 4.28096 9.50206 4.26363 9.5127C4.2391 9.5277 4.21419 9.54081 4.18844 9.55273C4.17389 9.55952 4.15953 9.56641 4.14449 9.57227C4.11397 9.58406 4.08326 9.59391 4.05172 9.60156C4.02979 9.60694 4.00795 9.61281 3.98531 9.61621C3.97911 9.61713 3.97298 9.61838 3.96676 9.61914C3.93609 9.62296 3.90471 9.62598 3.87301 9.62598C3.86417 9.62597 3.85541 9.62433 3.84664 9.62402C3.84077 9.6238 3.83493 9.6234 3.82906 9.62305C3.78904 9.62072 3.74997 9.61578 3.71187 9.60742C3.68857 9.60225 3.66634 9.59335 3.64352 9.58594C3.52433 9.54742 3.41772 9.48277 3.33297 9.39453L0.344687 6.4082L0.292929 6.35156C0.0527541 6.05711 0.0703796 5.62229 0.344687 5.34766C0.619264 5.0731 1.054 5.0556 1.34859 5.2959L1.40523 5.34766L3.12301 7.06445V0.875C3.12317 0.461004 3.45901 0.125133 3.87301 0.125Z" fill="#FA1651"/>
</svg>
