<svg width="36" height="40" viewBox="0 0 36 40" fill="none" xmlns="http://www.w3.org/2000/svg">
<path d="M2.99998 0H24.2412L35.4999 11.215V37.5C35.4999 38.8812 34.38 40 32.9999 40H2.99998C1.61994 40 0.5 38.8812 0.5 37.5V2.49998C0.5 1.11877 1.62007 0 2.99998 0Z" fill="#407BFF"/>
<path opacity="0.2" d="M35.4637 11.25H26.75C25.3699 11.25 24.25 10.13 24.25 8.74998V0.0249634L35.4637 11.25Z" fill="white"/>
<path d="M26.1217 18.9537C26.5405 18.9537 26.7455 18.5887 26.7455 18.235C26.7455 17.8687 26.5317 17.515 26.1217 17.515H23.7367C23.2705 17.515 23.0105 17.9012 23.0105 18.3275V24.1887C23.0105 24.7112 23.308 25.0012 23.7105 25.0012C24.1105 25.0012 24.4093 24.7112 24.4093 24.1887V22.58H25.8518C26.2993 22.58 26.523 22.2137 26.523 21.85C26.523 21.4938 26.2993 21.1399 25.8518 21.1399H24.4093V18.9537H26.1217ZM18.0605 17.515H16.3154C15.8417 17.515 15.5054 17.84 15.5054 18.3224V24.1937C15.5054 24.7924 15.9891 24.98 16.3353 24.98H18.1666C20.3341 24.98 21.7653 23.5538 21.7653 21.3524C21.7642 19.025 20.4167 17.515 18.0605 17.515ZM18.1443 23.5326H17.0805V18.9625H18.0392C19.4905 18.9625 20.1217 19.9363 20.1217 21.28C20.1217 22.5376 19.5017 23.5326 18.1443 23.5326ZM11.7517 17.515H10.023C9.53423 17.515 9.26172 17.8374 9.26172 18.3275V24.1887C9.26172 24.7112 9.5742 25.0012 9.99416 25.0012C10.4141 25.0012 10.7266 24.7112 10.7266 24.1887V22.4774H11.8103C13.1478 22.4774 14.2516 21.5299 14.2516 20.0062C14.2517 18.515 13.1867 17.515 11.7517 17.515ZM11.723 21.1025H10.7267V18.8913H11.723C12.338 18.8913 12.7293 19.3712 12.7293 19.9975C12.728 20.6226 12.338 21.1025 11.723 21.1025Z" fill="white"/>
</svg>
