<svg width="17" height="17" viewBox="0 0 17 17" fill="none" xmlns="http://www.w3.org/2000/svg">
<path d="M12.5 7.5L9.50002 4.5M0.875 16.125L3.41328 15.843C3.72339 15.8085 3.87845 15.7913 4.02338 15.7444C4.15197 15.7027 4.27434 15.6439 4.38717 15.5695C4.51434 15.4857 4.62466 15.3753 4.84529 15.1547L14.75 5.25C15.5784 4.42157 15.5784 3.07843 14.75 2.25C13.9216 1.42157 12.5784 1.42157 11.75 2.25L1.8453 12.1547C1.62466 12.3753 1.51434 12.4857 1.43048 12.6128C1.35607 12.7257 1.29726 12.848 1.25564 12.9766C1.20872 13.1215 1.19149 13.2766 1.15703 13.5867L0.875 16.125Z" stroke="#707D89" stroke-width="1.5" stroke-linecap="round" stroke-linejoin="round"/>
</svg>
