<svg width="30" height="24" viewBox="0 0 30 24" fill="none" xmlns="http://www.w3.org/2000/svg">
<path d="M27.6669 20L18.8098 12M11.1908 12L2.33371 20M1.66699 5.33331L12.5536 12.9539C13.4351 13.571 13.8759 13.8795 14.3553 13.9991C14.7789 14.1046 15.2218 14.1046 15.6453 13.9991C16.1248 13.8795 16.5655 13.571 17.4471 12.9539L28.3337 5.33331M8.06699 22.6666H21.9337C24.1739 22.6666 25.294 22.6666 26.1496 22.2307C26.9023 21.8472 27.5142 21.2353 27.8977 20.4826C28.3337 19.627 28.3337 18.5069 28.3337 16.2666V7.73331C28.3337 5.4931 28.3337 4.373 27.8977 3.51735C27.5142 2.7647 26.9023 2.15278 26.1496 1.76929C25.294 1.33331 24.1739 1.33331 21.9337 1.33331H8.06699C5.82678 1.33331 4.70668 1.33331 3.85103 1.76929C3.09838 2.15278 2.48646 2.7647 2.10297 3.51735C1.66699 4.373 1.66699 5.4931 1.66699 7.73331V16.2666C1.66699 18.5069 1.66699 19.627 2.10297 20.4826C2.48646 21.2353 3.09838 21.8472 3.85103 22.2307C4.70668 22.6666 5.82678 22.6666 8.06699 22.6666Z" stroke="#707D89" stroke-width="1.5" stroke-linecap="round" stroke-linejoin="round"/>
</svg>
