<svg width="27" height="24" viewBox="0 0 27 24" fill="none" xmlns="http://www.w3.org/2000/svg">
<path d="M2.5465 10.5711C2.5465 10.5711 13.9776 5.70797 17.9421 3.99552C19.4619 3.3106 24.6158 1.11866 24.6158 1.11866C24.6158 1.11866 26.9946 0.159766 26.7963 2.4886C26.7302 3.44758 26.2016 6.80384 25.6731 10.4342C24.8801 15.5714 24.0211 21.1881 24.0211 21.1881C24.0211 21.1881 23.889 22.7635 22.7657 23.0375C21.6424 23.3115 19.7922 22.0786 19.4619 21.8045C19.1975 21.5991 14.5062 18.5167 12.7882 17.0098C12.3257 16.5988 11.7971 15.7769 12.8543 14.8179C15.233 12.5576 18.0743 9.74924 19.7922 7.96835C20.5852 7.14635 21.3781 5.22847 18.0743 7.5573C13.3829 10.9137 8.75763 14.0645 8.75763 14.0645C8.75763 14.0645 7.70039 14.7494 5.71814 14.1329C3.73579 13.5165 1.42314 12.6945 1.42314 12.6945C1.42314 12.6945 -0.162591 11.6671 2.5465 10.5711Z" fill="#407BFF"/>
</svg>
