<svg width="8" height="10" viewBox="0 0 8 10" fill="none" xmlns="http://www.w3.org/2000/svg">
<path d="M4.12307 0.374329C4.15474 0.374329 4.18619 0.376377 4.21682 0.380188C4.22304 0.380951 4.22918 0.382199 4.23538 0.383118C4.25871 0.386615 4.28116 0.393147 4.30374 0.398743C4.33314 0.405962 4.36212 0.414285 4.39065 0.42511C4.40764 0.431607 4.42409 0.438923 4.44046 0.446594C4.46693 0.458919 4.49242 0.473001 4.51761 0.488586C4.53323 0.4983 4.54867 0.508057 4.5635 0.51886C4.57463 0.52694 4.58692 0.53353 4.59768 0.542297L4.6553 0.594055L7.6553 3.5921C7.94808 3.88491 7.94802 4.35972 7.6553 4.65265C7.36249 4.94543 6.88768 4.94537 6.59475 4.65265L4.87307 2.93097L4.87307 9.12531C4.87291 9.53938 4.53719 9.87531 4.12307 9.87531C3.70907 9.87517 3.37323 9.5393 3.37307 9.12531L3.37307 2.93488L1.6553 4.65265L1.59866 4.70441C1.30407 4.9447 0.86933 4.9272 0.594754 4.65265C0.320304 4.37803 0.302778 3.94324 0.542996 3.64874L0.594754 3.5921L3.58303 0.604797C3.6724 0.51189 3.78605 0.444732 3.91311 0.407532C3.92947 0.402715 3.94535 0.396562 3.96194 0.392883C4.00007 0.38451 4.03907 0.378611 4.07913 0.376282C4.08499 0.375925 4.09084 0.375525 4.09671 0.375305C4.10546 0.375 4.11424 0.374331 4.12307 0.374329Z" fill="#039855"/>
</svg>
