<svg width="29" height="28" viewBox="0 0 29 28" fill="none" xmlns="http://www.w3.org/2000/svg">
<path d="M21.3542 15.7159C21.3017 15.6886 19.3368 14.6392 18.9876 14.503C18.8451 14.4474 18.6924 14.3933 18.53 14.3933C18.2647 14.3933 18.0418 14.5366 17.8681 14.8183C17.6719 15.1347 17.0777 15.888 16.8941 16.113C16.8701 16.1427 16.8374 16.1782 16.8178 16.1782C16.8002 16.1782 16.4961 16.0424 16.404 15.999C14.2962 15.006 12.6963 12.6182 12.4769 12.2155C12.4456 12.1576 12.4443 12.1314 12.444 12.1314C12.4517 12.1007 12.5226 12.0236 12.5592 11.9839C12.6662 11.8691 12.7822 11.7177 12.8943 11.5713C12.9475 11.5019 13.0007 11.4324 13.0529 11.3669C13.2157 11.1616 13.2881 11.0021 13.3721 10.8174L13.4162 10.7215C13.6213 10.2795 13.4461 9.90658 13.3895 9.78615C13.343 9.68536 12.5133 7.51382 12.4251 7.28568C12.213 6.73515 11.9327 6.47882 11.5432 6.47882C11.5071 6.47882 11.5432 6.47882 11.3916 6.48575C11.2071 6.49419 10.2021 6.63769 9.75769 6.94147C9.28646 7.26366 8.48926 8.29069 8.48926 10.0969C8.48926 11.7224 9.44047 13.2573 9.84888 13.841C9.85903 13.8557 9.87767 13.8856 9.90471 13.9285C11.4687 16.4056 13.4185 18.2414 15.3951 19.0977C17.2979 19.922 18.199 20.0173 18.7113 20.0173H18.7114C18.9267 20.0173 19.099 19.999 19.251 19.9828L19.3474 19.9728C20.0048 19.9096 21.4493 19.0978 21.7779 18.1075C22.0368 17.3275 22.105 16.4753 21.9328 16.166C21.8149 15.9557 21.6116 15.8499 21.3542 15.7159Z" fill="#407BFF"/>
<path d="M14.7456 0.461548C7.41234 0.461548 1.44625 6.3828 1.44625 13.661C1.44625 16.015 2.07623 18.3193 3.26964 20.336L0.985414 27.074C0.942864 27.1996 0.974513 27.3385 1.06744 27.4331C1.13451 27.5016 1.2255 27.5385 1.31843 27.5385C1.35403 27.5385 1.3899 27.5332 1.42489 27.522L8.45085 25.2894C10.3735 26.3167 12.5465 26.8589 14.7457 26.8589C22.0783 26.859 28.0438 20.9384 28.0438 13.661C28.0438 6.3828 22.0783 0.461548 14.7456 0.461548ZM14.7456 24.1094C12.6763 24.1094 10.672 23.5119 8.94905 22.3813C8.89111 22.3433 8.82386 22.3238 8.75617 22.3238C8.72039 22.3238 8.68452 22.3292 8.64962 22.3403L5.13004 23.4591L6.26622 20.1071C6.30297 19.9986 6.2846 19.8789 6.21691 19.7864C4.9049 17.9937 4.21136 15.8757 4.21136 13.661C4.21136 7.89893 8.937 3.21109 14.7456 3.21109C20.5534 3.21109 25.2785 7.89893 25.2785 13.661C25.2786 19.4223 20.5536 24.1094 14.7456 24.1094Z" fill="#407BFF"/>
</svg>
